<svg width="69" height="90" viewBox="0 0 69 90" fill="none" xmlns="http://www.w3.org/2000/svg">
<path d="M69 51.2503H48.0302L45.855 65.7734H34.3325V22.9785L43.6798 20.0085V0H0V20.7126L4.05052 21.2055C5.66177 21.4052 7.25599 21.7434 8.81827 22.2168V66.9639L0 69.9339V90H69V51.2503Z" fill="#260859"/>
<path d="M49.735 70.734H29.7763V19.2597L39.1237 16.2898V4.96054H4.55609V16.2769C9.80884 16.904 14.8623 18.8211 19.3355 21.8839C18.3302 21.8135 17.3308 21.7815 16.3255 21.7815C15.3203 21.7815 14.362 21.7815 13.3861 21.8583V70.6251L4.55609 73.6079V85.0459H64.4439V56.2428H51.9043L49.735 70.734Z" fill="#FDB913"/>
</svg>
